<svg width="72" height="15" viewBox="0 0 72 15" fill="none" xmlns="http://www.w3.org/2000/svg">
<path fill-rule="evenodd" clip-rule="evenodd" d="M9.05693 5.94037L7.43846 0.611084L5.81999 5.94037H0.335449L4.7728 9.3904L3.12592 14.8171L7.43846 11.4635L11.751 14.8171L10.1041 9.3904L14.5415 5.94037H9.05693Z" fill="#FCA120"/>
<path fill-rule="evenodd" clip-rule="evenodd" d="M23.263 5.94037L21.6445 0.611084L20.026 5.94037H14.5415L18.9789 9.3904L17.332 14.8171L21.6445 11.4635L25.9571 14.8171L24.3102 9.3904L28.7475 5.94037H23.263Z" fill="#FCA120"/>
<path fill-rule="evenodd" clip-rule="evenodd" d="M37.469 5.94037L35.8506 0.611084L34.2321 5.94037H28.7476L33.1849 9.3904L31.538 14.8171L35.8506 11.4635L40.1631 14.8171L38.5162 9.3904L42.9536 5.94037H37.469Z" fill="#FCA120"/>
<path fill-rule="evenodd" clip-rule="evenodd" d="M51.6751 5.94037L50.0566 0.611084L48.4382 5.94037H42.9536L47.391 9.3904L45.7441 14.8171L50.0566 11.4635L54.3692 14.8171L52.7223 9.3904L57.1596 5.94037H51.6751Z" fill="#FCA120"/>
<path fill-rule="evenodd" clip-rule="evenodd" d="M65.8811 5.94037L64.2627 0.611084L62.6442 5.94037H57.1597L61.597 9.3904L59.9501 14.8171L64.2627 11.4635L68.5752 14.8171L66.9283 9.3904L71.3657 5.94037H65.8811Z" fill="#FCA120"/>
</svg>
